<?xml version="1.0" encoding="UTF-8" standalone="no"?>
<!-- Created with Inkscape (http://www.inkscape.org/) -->

<svg
   xmlns:dc="http://purl.org/dc/elements/1.1/"
   xmlns:cc="http://creativecommons.org/ns#"
   xmlns:rdf="http://www.w3.org/1999/02/22-rdf-syntax-ns#"
   xmlns:svg="http://www.w3.org/2000/svg"
   xmlns="http://www.w3.org/2000/svg"
   xmlns:sodipodi="http://sodipodi.sourceforge.net/DTD/sodipodi-0.dtd"
   xmlns:inkscape="http://www.inkscape.org/namespaces/inkscape"
   width="76mm"
   height="76mm"
   viewBox="0 0 76 76"
   version="1.1"
   id="svg8"
   inkscape:version="0.92.4 (f8dce91, 2019-08-02)"
   sodipodi:docname="bronze_medal.svg">
  <defs
     id="defs2" />
  <sodipodi:namedview
     id="base"
     pagecolor="#ffffff"
     bordercolor="#666666"
     borderopacity="1.0"
     inkscape:pageopacity="0.0"
     inkscape:pageshadow="2"
     inkscape:zoom="0.72031379"
     inkscape:cx="342.20252"
     inkscape:cy="501.6616"
     inkscape:document-units="mm"
     inkscape:current-layer="layer1"
     showgrid="false"
     inkscape:window-width="1852"
     inkscape:window-height="1020"
     inkscape:window-x="68"
     inkscape:window-y="28"
     inkscape:window-maximized="1" />
  <metadata
     id="metadata5">
    <rdf:RDF>
      <cc:Work
         rdf:about="">
        <dc:format>image/svg+xml</dc:format>
        <dc:type
           rdf:resource="http://purl.org/dc/dcmitype/StillImage" />
        <dc:title></dc:title>
      </cc:Work>
    </rdf:RDF>
  </metadata>
  <g
     inkscape:label="Layer 1"
     inkscape:groupmode="layer"
     id="layer1"
     transform="translate(0,-221)">
    <path
       style="fill:#e8501e;fill-opacity:1;stroke:#000000;stroke-width:2.66499996;stroke-linecap:square;stroke-linejoin:miter;stroke-miterlimit:4;stroke-dasharray:none;stroke-opacity:1"
       d="m 59.77506,228.5997 c 10.2934,3.60704 8.88482,11.15414 6.01323,14.13175 l -21.51933,21.55352 -5.682972,-5.66922 20.227522,-20.22752 c 1.96703,-3.04098 1.91236,-5.87771 0.96155,-9.78853 z"
       id="path830"
       inkscape:connector-curvature="0"
       sodipodi:nodetypes="cccccc" />
    <path
       sodipodi:nodetypes="cccccc"
       inkscape:connector-curvature="0"
       id="path832"
       d="m 17.416373,228.62889 c -10.2934004,3.60704 -8.8167084,11.01792 -5.945118,13.99553 l 21.54852,21.77731 9.634015,0.0584 -24.178565,-26.26648 c -1.747384,-2.37643 -2.408603,-5.57763 -1.058852,-9.56474 z"
       style="fill:#e8501e;fill-opacity:1;stroke:#000000;stroke-width:2.66499996;stroke-linecap:butt;stroke-linejoin:miter;stroke-miterlimit:4;stroke-dasharray:none;stroke-opacity:1" />
    <path
       style="fill:#c87137;fill-opacity:1;stroke:#000000;stroke-width:1.8131386;stroke-linecap:butt;stroke-linejoin:miter;stroke-miterlimit:4;stroke-dasharray:none;stroke-opacity:1"
       d="m 32.299461,265.54818 0.05346,4.60467 c 3.696375,-1.57386 7.717099,-2.07058 12.420119,-0.004 l 0.0439,-4.57903 z"
       id="path838"
       inkscape:connector-curvature="0"
       sodipodi:nodetypes="ccccc" />
    <circle
       style="opacity:1;fill:#c87137;fill-opacity:1;fill-rule:evenodd;stroke:#000000;stroke-width:3.12346816;stroke-linecap:square;stroke-linejoin:miter;stroke-miterlimit:4;stroke-dasharray:none;stroke-opacity:1"
       id="path842"
       cx="38.69606"
       cy="281.04492"
       r="12.127449" />
    <path
       style="fill:#d44620;fill-opacity:1;stroke:#000000;stroke-width:2.66499996;stroke-linecap:butt;stroke-linejoin:miter;stroke-miterlimit:4;stroke-dasharray:none;stroke-opacity:1"
       d="m 18.214229,228.24942 c 0.429444,-0.22486 0.771295,-0.45635 1.246649,-0.67522 9.576163,-4.4091 30.157752,-4.22651 38.959022,0.4278 0.5269,0.27863 0.47086,0.32554 0.91731,0.74365 0.35049,0.41548 0.80239,0.92729 0.90523,1.36809 0.69616,2.98399 0.55626,5.38947 -1.31885,6.62326 -14.12881,-5.30794 -31.701325,-3.25517 -41.384062,-0.0845 -1.592505,-2.40932 -1.023031,-5.00418 -0.04969,-7.37181 0.140213,-0.34107 0.570463,-0.69856 0.724392,-1.03126 z"
       id="path844"
       inkscape:connector-curvature="0"
       sodipodi:nodetypes="csscsccscc" />
    <path
       style="fill:none;stroke:#e38800;stroke-width:2.46499991;stroke-linecap:round;stroke-linejoin:miter;stroke-miterlimit:4;stroke-dasharray:none;stroke-opacity:1"
       d="m 43.16244,275.555 c 6.7749,7.52449 -1.59203,14.35545 -7.631223,11.82101"
       id="path846"
       inkscape:connector-curvature="0"
       sodipodi:nodetypes="cc" />
    <path
       style="fill:#deaa87;stroke:#e38800;stroke-width:2.46499991;stroke-linecap:round;stroke-linejoin:miter;stroke-miterlimit:4;stroke-dasharray:none;stroke-opacity:1"
       d="m 35.833562,274.50839 c -2.947831,1.00007 -4.407176,3.63638 -4.261718,6.36339"
       id="path848"
       inkscape:connector-curvature="0"
       sodipodi:nodetypes="cc" />
  </g>
</svg>
